<svg height="512" viewBox="0 0 64 64" width="512" xmlns="http://www.w3.org/2000/svg"><g id="storage-conection-communication-network-social_network" data-name="storage-conection-communication-network-social network"><path d="m14 23h4v2h-4z"/><path d="m14 31h4v2h-4z"/><path d="m14 39h4v2h-4z"/><path d="m61.32 18.05-5.32-1.77v-1.31a4.952 4.952 0 0 0 2-3.97v-4a5 5 0 0 0 -10 0v4a4.952 4.952 0 0 0 2 3.97v1.31l-5.32 1.77a1.014 1.014 0 0 0 -.68.95v10a1 1 0 0 0 1 1h16a1 1 0 0 0 1-1v-10a1.014 1.014 0 0 0 -.68-.95zm-8.32-14.05a2.988 2.988 0 0 1 2.97 2.71l-2.73-.68a.975.975 0 0 0 -.48 0l-2.73.68a2.988 2.988 0 0 1 2.97-2.71zm-3 4.78 3-.75 3 .75v2.22a3 3 0 0 1 -6 0zm6 9.61v2.33l-1.55-.39 1.06-2.11zm-6 0 .49-.17 1.06 2.11-1.55.39zm2 9.61h-6v-8.28l2-.67v2.95a.99.99 0 0 0 1 1 .986.986 0 0 0 .24-.03l2.76-.69zm0-11.24v-.86a5.05 5.05 0 0 0 2 0v.86l-1 2zm8 11.24h-6v-5.72l2.76.69a.986.986 0 0 0 .24.03.99.99 0 0 0 1-1v-2.95l2 .67z"/><path d="m42 9v-2h-5a1 1 0 0 0 -1 1v21.18a3.035 3.035 0 0 0 -1.82 1.82h-4.18v-7c0-3.28-7.04-5-14-5s-14 1.72-14 5v16c0 3.28 7.04 5 14 5s14-1.72 14-5v-7h4.18a3.035 3.035 0 0 0 1.82 1.82v21.18a1 1 0 0 0 1 1h5v-2h-4v-20.18a2.988 2.988 0 0 0 0-5.64v-20.18zm-14 31c0 1.06-4.56 3-12 3s-12-1.94-12-3v-5.3c2.58 1.52 7.31 2.3 12 2.3s9.42-.78 12-2.3zm0-8c0 1.06-4.56 3-12 3s-12-1.94-12-3v-5.3c2.58 1.52 7.31 2.3 12 2.3s9.42-.78 12-2.3zm-12-5c-7.44 0-12-1.94-12-3s4.56-3 12-3 12 1.94 12 3-4.56 3-12 3zm21 6a1 1 0 1 1 1-1 1 1 0 0 1 -1 1z"/><path d="m61.32 50.05-5.32-1.77v-1.31a4.952 4.952 0 0 0 2-3.97v-4a5 5 0 0 0 -10 0v4a4.952 4.952 0 0 0 2 3.97v1.31l-5.32 1.77a1.014 1.014 0 0 0 -.68.95v10a1 1 0 0 0 1 1h16a1 1 0 0 0 1-1v-10a1.014 1.014 0 0 0 -.68-.95zm-8.32-14.05a2.988 2.988 0 0 1 2.97 2.71l-2.73-.68a.975.975 0 0 0 -.48 0l-2.73.68a2.988 2.988 0 0 1 2.97-2.71zm-3 4.78 3-.75 3 .75v2.22a3 3 0 0 1 -6 0zm6 9.61v2.33l-1.55-.39 1.06-2.11zm-6 0 .49-.17 1.06 2.11-1.55.39zm2 9.61h-6v-8.28l2-.67v2.95a.99.99 0 0 0 1 1 .986.986 0 0 0 .24-.03l2.76-.69zm0-11.24v-.86a5.05 5.05 0 0 0 2 0v.86l-1 2zm8 11.24h-6v-5.72l2.76.69a.986.986 0 0 0 .24.03.99.99 0 0 0 1-1v-2.95l2 .67z"/></g></svg>